<?xml version="1.0" encoding="UTF-8" standalone="no"?>
<!--part of the matt icon theme by sixsixfive released under CC0 (https://creativecommons.org/publicdomain/zero/1.0/) on openclipart-->
<svg xmlns="http://www.w3.org/2000/svg" xmlns:xlink="http://www.w3.org/1999/xlink" viewBox="0 0 128 128">
 <defs id="0">
  <linearGradient id="B">
   <stop id="W" stop-color="#eee" stop-opacity="0.64"/>
   <stop id="X" offset="1" stop-color="#eee" stop-opacity="0"/>
  </linearGradient>
  <linearGradient id="C">
   <stop id="Y" stop-color="#00438a"/>
   <stop id="Z" offset="1" stop-color="#004fa3"/>
  </linearGradient>
  <linearGradient id="D">
   <stop id="a" stop-color="#323232" stop-opacity="0.646"/>
   <stop id="b" offset="1" stop-color="#fff"/>
  </linearGradient>
  <linearGradient id="E">
   <stop id="c" stop-color="#eee"/>
   <stop id="d" offset="1" stop-color="#eee" stop-opacity="0"/>
  </linearGradient>
  <linearGradient id="F">
   <stop id="e" stop-color="#888"/>
   <stop id="f" offset="1" stop-color="#b9b9b9"/>
  </linearGradient>
  <linearGradient x1="51.589" y1="26.674" x2="51.33" y2="8.05" id="G" xlink:href="#F" gradientUnits="userSpaceOnUse" gradientTransform="matrix(1.3701099,0,0,1.3701099,19.50623,16.203504)"/>
  <linearGradient y1="15.244" x2="0" y2="23.485" id="H" xlink:href="#E" gradientUnits="userSpaceOnUse"/>
  <linearGradient y1="40.981" x2="0" y2="107.92" id="I" xlink:href="#D" gradientUnits="userSpaceOnUse"/>
  <radialGradient cx="44.589" cy="-3.917" r="11.5" id="J" xlink:href="#C" gradientUnits="userSpaceOnUse" gradientTransform="matrix(2.0262226,-1.2685728,1.6721164,2.6707807,-41.303485,66.198541)"/>
  <radialGradient cx="49.726" cy="7.2" r="11.5" id="K" xlink:href="#C" gradientUnits="userSpaceOnUse" gradientTransform="matrix(0.6397993,0.7685421,-1.656649,1.3791344,31.0387,-43.229988)"/>
  <radialGradient cx="29.05" cy="3.345" r="11.5" id="L" xlink:href="#C" gradientUnits="userSpaceOnUse" gradientTransform="matrix(2.0271784,1.0983279,-0.4763747,0.8792424,-28.250691,-31.507491)"/>
  <radialGradient cx="38.08" cy="12.906" r="11.5" id="M" xlink:href="#C" gradientUnits="userSpaceOnUse" gradientTransform="matrix(2.8259984,-0.8281523,0.6064067,2.0693114,-74.279963,17.817147)"/>
  <linearGradient x1="56.58" y1="-4.789" x2="52.46" y2="10.635" id="N" xlink:href="#B" gradientUnits="userSpaceOnUse"/>
 </defs>
 <g transform="matrix(0.9298937,0,0,0.9298937,5.0914696,8.4811678)" id="1">
  <path d="m 7.09375,6.78125 c -2.9848755,0 -5.4375,2.4096283 -5.4375,5.40625 l 0,39.09375 c 0,2.996621 2.4408787,5.437499 5.4375,5.4375 l 49.8125,0 c 2.996622,0 5.437499,-2.440879 5.4375,-5.4375 l 0,-39.09375 c 0,-2.9966223 -2.452626,-5.40625 -5.4375,-5.40625 l -49.8125,0 z" transform="matrix(1.3701099,0,0,1.3701099,19.50623,16.203504)" id="O" fill="#555"/>
  <rect width="79.63" height="64.925" rx="5.684" x="23.533" y="27.24" id="P" fill="url(#G)"/>
  <path d="m 28.840105,44.462021 c -1.520787,0 -2.740221,1.262249 -2.740221,2.783035 l 0,38.834053 c 0,1.520789 1.219434,2.740215 2.740221,2.740215 l 10.447087,0 8.391923,0 0.256896,0 49.752118,0 c 1.488225,0 2.654581,-1.209171 2.654581,-2.697399 l 0,-38.9625 c 0,-1.488231 -1.166356,-2.697404 -2.654581,-2.697404 l -49.752118,0 -0.256896,0 -8.391923,0 -10.447087,0 z" id="Q" fill="#eee"/>
  <path d="M 12.59375,16.34375 C 8.5082167,16.34375 5.25,19.601966 5.25,23.6875 l 0,80.625 c 0,4.08554 3.2582164,7.34375 7.34375,7.34375 l 102.78125,0 c 4.08554,0 7.34375,-3.25821 7.34375,-7.34375 l 0,-80.625 c 0,-4.085534 -3.25821,-7.34375 -7.34375,-7.34375 l -102.78125,0 z" transform="matrix(0.6641353,0,0,0.6641353,20.845087,17.199834)" id="R" opacity="0.898" fill="none" stroke="url(#H)" stroke-width="2.2"/>
  <path d="m 105.22307,25.426434 a 4.44738,4.1635049 0 1 1 -8.89476,0 4.44738,4.1635049 0 1 1 8.89476,0 z" transform="matrix(0.8959913,0,0,0.9570817,4.1667315,11.925138)" id="S" opacity="0.898" fill="#323232"/>
  <path d="m 105.22307,25.426434 a 4.44738,4.1635049 0 1 1 -8.89476,0 4.44738,4.1635049 0 1 1 8.89476,0 z" transform="matrix(0.8959913,0,0,0.9570817,-4.8652182,11.925138)" id="T" opacity="0.898" fill="#323232"/>
  <path d="m 105.22307,25.426434 a 4.44738,4.1635049 0 1 1 -8.89476,0 4.44738,4.1635049 0 1 1 8.89476,0 z" transform="matrix(0.8959913,0,0,0.9570817,-13.897458,11.925138)" id="U" opacity="0.898" fill="#323232"/>
  <path d="M 12.03125,42.03125 C 10.276324,42.031251 8.875,43.477456 8.875,45.25 l 0,58.46875 c 0,1.77255 1.383703,3.15625 3.15625,3.15625 l 15.75,0 12.625,0 0.375,0 74.9375,0 c 1.71608,0 3,-1.35066 3,-3.09375 l 0,-58.65625 c 0,-1.743095 -1.28392,-3.09375 -3,-3.09375 l -74.9375,0 -0.375,0 -12.625,0 -15.75,0 z" transform="matrix(0.6641353,0,0,0.6641353,20.845087,17.199834)" id="V" fill="none" stroke="url(#I)" stroke-width="2.1"/>
 </g>
 <path d="m 44.875,-12.09375 a 1.8477453,1.8477453 0 0 0 -1.15625,0.53125 l -10.125,10.15625 -10.15625,10.125 a 1.8477453,1.8477453 0 0 0 0.84375,3.09375 L 38.125,15.53125 52,19.25 A 1.8477453,1.8477453 0 0 0 54.25,17 L 50.53125,3.15625 46.8125,-10.71875 a 1.8477453,1.8477453 0 0 0 -1.9375,-1.375 z" transform="matrix(0.6407418,-0.1711718,0.1711718,0.6407418,36.890195,25.566654)" id="2" fill="#00316e" fill-rule="evenodd"/>
 <path d="M 44.28125,-7.53125 35.90625,0.875 A 3.2528794,3.2528794 0 0 1 35.875,0.90625 l -8.40625,8.375 11.5,3.09375 L 50.4375,15.4375 47.375,4 44.28125,-7.53125 z" transform="matrix(0.6407418,-0.1711718,0.1711718,0.6407418,36.890195,25.566654)" id="3" fill="url(#M)" fill-rule="evenodd"/>
 <path d="m 44.875,-12.09375 a 1.8477453,1.8477453 0 0 0 -1.15625,0.53125 l -10.125,10.15625 -10.15625,10.125 a 1.8477453,1.8477453 0 0 0 0.84375,3.09375 L 38.125,15.53125 52,19.25 A 1.8477453,1.8477453 0 0 0 54.25,17 L 50.53125,3.15625 46.8125,-10.71875 a 1.8477453,1.8477453 0 0 0 -1.9375,-1.375 z" transform="matrix(0.1711718,0.6407418,-0.6407418,0.1711718,108.73335,36.913171)" id="4" fill="#00316e" fill-rule="evenodd"/>
 <path d="M 44.28125,-7.53125 35.90625,0.875 A 3.2528794,3.2528794 0 0 1 35.875,0.90625 l -8.40625,8.375 11.5,3.09375 L 50.4375,15.4375 47.375,4 44.28125,-7.53125 z" transform="matrix(0.1711718,0.6407418,-0.6407418,0.1711718,108.73335,36.913171)" id="5" fill="url(#K)" fill-rule="evenodd"/>
 <path d="m 44.875,-12.09375 a 1.8477453,1.8477453 0 0 0 -1.15625,0.53125 l -10.125,10.15625 -10.15625,10.125 a 1.8477453,1.8477453 0 0 0 0.84375,3.09375 L 38.125,15.53125 52,19.25 A 1.8477453,1.8477453 0 0 0 54.25,17 L 50.53125,3.15625 46.8125,-10.71875 a 1.8477453,1.8477453 0 0 0 -1.9375,-1.375 z" transform="matrix(-0.6407418,0.1711718,-0.1711718,-0.6407418,90.530895,102.53351)" id="6" fill="#00316e" fill-rule="evenodd"/>
 <path d="M 44.28125,-7.53125 35.90625,0.875 A 3.2528794,3.2528794 0 0 1 35.875,0.90625 l -8.40625,8.375 11.5,3.09375 L 50.4375,15.4375 47.375,4 44.28125,-7.53125 z" transform="matrix(-0.6407418,0.1711718,-0.1711718,-0.6407418,90.530895,102.53351)" id="7" fill="url(#J)" fill-rule="evenodd"/>
 <path d="m 44.875,-12.09375 a 1.8477453,1.8477453 0 0 0 -1.15625,0.53125 l -10.125,10.15625 -10.15625,10.125 a 1.8477453,1.8477453 0 0 0 0.84375,3.09375 L 38.125,15.53125 52,19.25 A 1.8477453,1.8477453 0 0 0 54.25,17 L 50.53125,3.15625 46.8125,-10.71875 a 1.8477453,1.8477453 0 0 0 -1.9375,-1.375 z" transform="matrix(-0.1711718,-0.6407418,0.6407418,-0.1711718,19.166491,91.086825)" id="8" fill="#00316e" fill-rule="evenodd"/>
 <path d="M 44.28125,-7.53125 35.90625,0.875 A 3.2528794,3.2528794 0 0 1 35.875,0.90625 l -8.40625,8.375 11.5,3.09375 L 50.4375,15.4375 47.375,4 44.28125,-7.53125 z" transform="matrix(-0.1711718,-0.6407418,0.6407418,-0.1711718,19.166491,91.086825)" id="9" fill="url(#L)" fill-rule="evenodd"/>
 <path d="m 44.03125,-6.53125 -7.75,7.75 c -0.003,0.00303 0.003,0.028227 0,0.03125 l -0.03125,0 c -0.006,0.00602 -0.02519,0.025267 -0.03125,0.03125 l -7.75,7.75 10.625,2.84375 L 49.75,14.75 46.875,4.125 44.03125,-6.53125 z" transform="matrix(0.6407418,-0.1711718,0.1711718,0.6407418,36.890195,25.566654)" id="A" fill="none" stroke="url(#N)" stroke-linejoin="round" stroke-width="3.111"/>
</svg>
