<?xml version="1.0" encoding="UTF-8" standalone="no"?>
<!--part of the rodentia icon theme by sixsixfive released under CC0 (https://creativecommons.org/publicdomain/zero/1.0/) on openclipart-->
<svg xmlns="http://www.w3.org/2000/svg" xmlns:xlink="http://www.w3.org/1999/xlink" viewBox="0 0 48 48">
 <defs id="0">
  <linearGradient id="2">
   <stop id="F" stop-color="#eee"/>
   <stop id="G" offset="1" stop-color="#dcdcdc"/>
  </linearGradient>
  <radialGradient cx="60.05" cy="51.39" r="15.03" id="3" xlink:href="#2" gradientUnits="userSpaceOnUse" gradientTransform="matrix(-1.404511,1.1888571,-1,-1.1813958,199.73811,11.750541)"/>
  <linearGradient id="4">
   <stop id="H" stop-color="#2e3436"/>
   <stop id="I" offset="1" stop-color="#2e3436" stop-opacity="0"/>
  </linearGradient>
  <linearGradient id="5">
   <stop id="J" stop-color="#fff" stop-opacity="0.8"/>
   <stop id="K" offset="1" stop-color="#fff" stop-opacity="0"/>
  </linearGradient>
  <linearGradient id="6">
   <stop id="L" stop-color="#fff"/>
   <stop id="M" offset="1" stop-color="#fff" stop-opacity="0"/>
  </linearGradient>
  <radialGradient cx="25.02" cy="44.3" r="16.727" id="7" xlink:href="#4" gradientUnits="userSpaceOnUse" gradientTransform="matrix(1,0,0,0.1150442,0,39.202918)"/>
  <linearGradient y1="5.456" x2="0" y2="47.844" id="8" xlink:href="#5" gradientUnits="userSpaceOnUse" gradientTransform="matrix(0.9538134,0,0,0.9538134,-4.6118356,-1.3412107)"/>
  <linearGradient x1="0.1" y1="-28.1" x2="21.09" y2="25.22" id="9" xlink:href="#6" gradientUnits="userSpaceOnUse" gradientTransform="matrix(0.9538125,0,0,0.9538125,1.1090313,1.0887358)"/>
 </defs>
 <g transform="translate(0,-0.9117398)" id="1">
  <path d="m 41.743937,44.299297 a 16.727181,1.9243659 0 1 1 -33.4543614,0 16.727181,1.9243659 0 1 1 33.4543614,0 z" transform="matrix(1,0,0,1.8336849,-1.0167561,-37.496634)" id="A" opacity="0.6" fill="url(#7)"/>
  <path d="m 17.5,2.5625 a 0.24280127,0.24280127 0 0 0 -0.0625,0.03125 l -0.03125,0 -0.09375,0 c -0.06515,-10e-8 -0.107347,0.032236 -0.15625,0.0625 A 0.24280127,0.24280127 0 0 0 17.125,2.6875 c -0.0068,0.00525 -0.02549,-0.00516 -0.03125,0 -0.0086,0.00773 -0.0253,0.02426 -0.03125,0.03125 0.005,-0.00484 -0.01162,-0.023108 0,-0.03125 -0.04669,-0.00105 -0.142164,0.0107 -0.21875,0.03125 -0.01066,0.00286 -0.02034,-0.00355 -0.03125,0 l -0.03125,0 a 0.24280127,0.24280127 0 0 0 -0.0625,0.03125 0.24280127,0.24280127 0 0 0 -0.125,0.0625 c -0.0032,0.00241 -0.0216,0.02364 -0.03125,0.03125 -0.02085,0.012267 -0.03986,0.047863 -0.0625,0.0625 -0.05801,0.037508 -0.11997,0.064864 -0.1875,0.125 -0.01318,0.011734 -0.01778,0.018423 -0.03125,0.03125 -0.340488,0.2063247 -0.555662,0.4744054 -0.6875,0.65625 A 0.24280127,0.24280127 0 0 0 15.5625,3.75 c -0.151407,0.2365739 -0.359516,0.5951725 -0.40625,1.0625 -0.02071,0.1553123 -0.0052,0.2638056 0,0.34375 4.71e-4,0.00727 -3.19e-4,0.024868 0,0.03125 -0.0035,0.016283 -0.0061,0.060479 0,0.125 10e-4,0.010422 -0.0011,0.021607 0,0.03125 l 0.03125,0 c -6.09e-4,0.00975 9e-6,0.024791 0,0.03125 -1.8e-5,0.012917 -5.51e-4,0.019936 0,0.03125 0.0011,0.022629 -0.0022,0.041486 0,0.0625 0.0011,0.010507 -0.002,0.018332 0,0.03125 10e-4,0.00646 -0.0041,0.015352 0,0.03125 l 0.03125,0.125 a 0.24280127,0.24280127 0 0 0 0.03125,0 0.24280127,0.24280127 0 0 0 0,0.03125 0.24280127,0.24280127 0 0 0 0,0.03125 0.24280127,0.24280127 0 0 0 0,0.03125 0.24280127,0.24280127 0 0 0 0.03125,0 0.24280127,0.24280127 0 0 0 0,0.03125 0.24280127,0.24280127 0 0 0 0,0.03125 0.24280127,0.24280127 0 0 0 0,0.03125 0.24280127,0.24280127 0 0 0 0.03125,0.03125 0.24280127,0.24280127 0 0 0 0,0.03125 0.24280127,0.24280127 0 0 0 0.03125,0.03125 0.24280127,0.24280127 0 0 0 0,0.03125 c 0.0012,0.00353 0.03003,-0.00351 0.03125,0 A 0.24280127,0.24280127 0 0 0 15.375,6 c 0.01042,0.028323 0.01898,0.058697 0.03125,0.09375 0.07358,0.1635084 0.108966,0.2388849 0.15625,0.3125 0.0057,0.00894 0.02523,0.022649 0.03125,0.03125 0.101924,0.2367679 0.216529,0.5547386 0.375,0.875 0.0048,0.00963 -0.0048,0.021574 0,0.03125 a 0.24280127,0.24280127 0 0 0 0,0.03125 C 15.97585,7.38897 15.9928,7.392198 16,7.40625 a 0.24280127,0.24280127 0 0 0 0,0.03125 c 2.244725,4.237028 4.419921,8.519188 6.75,12.71875 0.212801,0.370088 0.400362,0.613222 0.5,0.8125 A 0.24280127,0.24280127 0 0 0 23.25,21 c 0.187549,0.34548 0.448537,0.656916 0.59375,0.8125 0.14288,0.190508 0.269683,0.323435 0.53125,0.46875 a 0.24280127,0.24280127 0 0 0 0.03125,0 c 0.312346,0.151135 0.686652,0.264314 1.0625,0.3125 a 0.24280127,0.24280127 0 0 0 0.03125,0 c 0.408091,0 0.777196,-0.180144 1.1875,-0.3125 a 0.24280127,0.24280127 0 0 0 0.03125,0 c 0.446949,-0.167606 0.68056,-0.552733 0.875,-0.8125 0.01477,-0.01231 0.01987,-0.02 0.03125,-0.03125 0.0588,-0.05814 0.08299,-0.123944 0.125,-0.1875 0.05014,-0.07586 0.107293,-0.144465 0.1875,-0.25 a 0.24280127,0.24280127 0 0 0 0.03125,-0.03125 c 0.155627,-0.245727 0.578245,-0.804321 0.90625,-1.3125 0.218935,-0.364891 0.435608,-0.738098 0.65625,-1.125 1.972682,1.623534 3.3125,3.916599 3.3125,6.65625 10e-7,4.92192 -3.917348,8.84375 -8.84375,8.84375 -4.921775,0 -8.84375,-3.921973 -8.84375,-8.84375 0,-2.021607 0.648423,-3.818967 1.8125,-5.3125 0.347618,-0.453415 0.609904,-1.12566 0.5,-1.875 -0.09805,-0.686354 -0.429701,-1.230592 -0.9375,-1.625 -1.824719,-1.354989 -3.349515,-2.429791 -5.1875,-3.78125 -0.830071,-0.616624 -1.9360249,-0.574963 -2.75,-0.0625 -0.015653,0.0099 -0.047062,-0.01023 -0.0625,0 A 0.24280127,0.24280127 0 0 0 8.5,12.5625 a 0.24280127,0.24280127 0 0 0 -0.0625,0.03125 0.24280127,0.24280127 0 0 0 -0.03125,0 C 8.1973946,12.742932 8.0606927,12.889104 7.9375,13.03125 5.3972182,16.40613 3.75,20.619528 3.75,25.1875 c 0,11.136922 9.113078,20.25 20.25,20.25 11.141379,0 20.25,-9.113143 20.25,-20.25 C 44.25,18.374208 40.726172,12.491235 35.5625,8.875 35.708032,8.6545416 35.887728,8.4254245 36,8.25 c 0.209528,-0.349216 0.415099,-0.6241697 0.59375,-0.90625 0.05212,-0.099283 0.09249,-0.2058938 0.125,-0.28125 0.03251,-0.075356 0.07797,-0.1507831 0.0625,-0.125 0.01297,-0.021212 1.23e-4,-0.062842 0,-0.0625 A 0.24280127,0.24280127 0 0 0 36.8125,6.84375 c 0.002,-0.00739 -6.3e-4,-0.027506 0,-0.03125 0.0067,-0.011287 -5.5e-5,-0.031117 0,-0.03125 0.0043,-0.00735 -0.0065,-0.020197 0,-0.03125 0.0093,-0.012825 0.02615,0.010032 0.03125,0 0.0015,-0.00787 -0.0011,-0.021298 0,-0.03125 0.0064,-0.00918 -0.0059,-0.021947 0,-0.03125 0.0036,-0.012828 0.02919,-0.020952 0.03125,-0.03125 0.01704,-0.030641 0.02831,-0.083942 0.03125,-0.09375 0.01363,-0.014667 0.02365,-0.023055 0.03125,-0.03125 3.5e-5,-1.9e-4 -2e-6,-0.031155 0,-0.03125 0.0022,-0.00677 -0.0016,-0.026351 0,-0.03125 0.0068,-0.017892 0.03119,-0.030992 0.03125,-0.03125 1e-4,-4.304e-4 -7.73e-4,-0.022707 0,-0.03125 0.0031,-0.034173 3.93e-4,-0.055527 0,-0.0625 -7.87e-4,-0.013946 0,-0.016788 0,-0.03125 0.02559,-0.036476 0.07281,-0.020317 0.09375,-0.125 a 0.24280127,0.24280127 0 0 0 0,-0.03125 c 0.01718,-0.1145132 0.0039,-0.1958858 0,-0.21875 -5.6e-4,-0.00327 0,-0.03125 0,-0.03125 C 37.08806,5.854418 37.13146,5.816633 37.125,5.6875 37.119896,5.279411 36.993911,4.8744612 36.8125,4.53125 36.632378,4.1994479 36.372803,3.8970215 36.03125,3.6875 36.020607,3.6798981 36.010589,3.6640534 36,3.65625 35.910249,3.590107 35.804171,3.5249004 35.6875,3.46875 35.659678,3.4473478 35.65814,3.4492344 35.625,3.4375 35.54925,3.410678 35.494714,3.406981 35.46875,3.40625 c -0.0049,-1.371e-4 -0.03039,-7.1e-5 -0.03125,0 C 35.4363,3.4063446 35.39881,3.375 35.40625,3.375 35.39004,3.362349 35.3639,3.385132 35.34375,3.375 35.31856,3.362335 35.30483,3.349495 35.28125,3.34375 35.267101,3.3403033 35.261083,3.3125 35.25,3.3125 l -0.0625,0 C 35.09162,3.274211 34.988146,3.21875 34.84375,3.21875 c -0.0448,-3e-7 -0.02335,-3.534e-4 -0.03125,0 A 0.24280127,0.24280127 0 0 0 34.65625,3.1875 l -0.1875,0 c -0.0092,-0.00146 -0.02196,0.00138 -0.03125,0 C 34.128456,3.14161 33.781025,3.13586 33.40625,3.09375 a 0.24280127,0.24280127 0 0 0 -0.03125,0 C 32.567722,3.0483973 31.554036,3.0137943 30.5,2.96875 29.438127,2.9233707 28.353842,2.9194572 27.5625,2.875 c -0.35697,10e-8 -0.660762,-0.0625 -0.96875,-0.0625 l -0.3125,0 -0.03125,0 -0.09375,0 c 0.02284,0 -0.02761,0.00522 -0.09375,0 -0.06614,-0.00522 -0.167218,-0.022317 -0.28125,-0.03125 -0.228064,-0.017867 -0.558941,-0.039832 -0.9375,-0.0625 -0.799287,0 -1.89112,-0.017591 -2.9375,-0.0625 C 20.865166,2.611181 19.861679,2.5625 19.03125,2.5625 l -1.03125,0 -0.4375,0 a 0.24280127,0.24280127 0 0 0 -0.0625,0 z" id="B" fill="#445800"/>
  <path d="m 23.09375,5.34375 c -0.146471,0.02842 -0.20554,0.077011 -0.25,0.09375 -0.122938,0.046291 -0.161443,0.059657 -0.3125,0.15625 -0.257908,0.1649268 -0.349918,0.3478701 -0.40625,0.4375 -0.05185,0.082497 -0.202672,0.1961617 -0.25,0.59375 -0.01624,0.136321 0.0033,0.3491169 0,0.3125 0.0088,0.098206 0.03631,0.17185 0.0625,0.25 0.01309,0.039075 0.01918,0.098331 0.03125,0.125 0.005,0.041753 -0.03199,-0.038662 0.03125,0.125 0.05073,0.1312833 0.105612,0.234065 0.15625,0.34375 0.126864,0.2747965 0.285726,0.6053135 0.46875,0.96875 0.378885,0.7523643 0.862561,1.681547 1.375,2.65625 0.51356,0.976837 1.06646,1.971881 1.46875,2.71875 0.201145,0.373434 0.348296,0.684023 0.46875,0.90625 0.120454,0.222227 0.243795,0.481552 0.1875,0.375 -0.0407,-0.07703 0.02274,-0.01709 0.03125,0 0.0085,0.01709 0.01528,0.03057 0.03125,0.0625 0.03193,0.06386 0.06693,0.166629 0.125,0.28125 0.116136,0.229242 0.270738,0.529423 0.46875,0.90625 0.387311,0.737075 0.920187,1.742717 1.4375,2.71875 0.512844,0.967601 1.027374,1.94545 1.4375,2.6875 0.205054,0.371012 0.361217,0.674188 0.5,0.90625 0.09399,0.157162 0.181789,0.290051 0.21875,0.34375 -0.03003,-0.04363 0.01409,0.02832 0.125,0.15625 0.110987,0.128017 0.112937,0.09967 0.15625,0.125 0.01964,0.02101 0.03936,0.04081 0.0625,0.0625 0.01291,0.0032 0.09069,0.06075 0.09375,0.0625 0.05865,0.04654 0.09785,0.09628 0.15625,0.125 0.03042,0.01496 0.312856,0.144536 0.625,0.15625 0.357432,0.01342 0.651598,-0.131165 0.75,-0.1875 0.266908,-0.152809 0.653673,-0.52421 0.1875,-0.15625 C 32.429073,23.7369 32.46529,23.808341 32.75,23.5 c 0.264674,-0.286634 0.275603,-0.37682 0.15625,-0.21875 0.02933,-0.03885 0.185573,-0.233496 0.34375,-0.46875 0.237195,-0.352776 0.509749,-0.784995 0.84375,-1.3125 0.431928,-0.682166 0.928928,-1.484908 1.40625,-2.25 2.916547,1.83308 4.90625,4.956113 4.90625,8.65625 -10e-7,5.769159 -4.665147,10.40625 -10.4375,10.40625 -5.772354,-2e-6 -10.40625,-4.633898 -10.40625,-10.40625 -1e-6,-2.376914 0.832008,-4.543793 2.1875,-6.3125 0.215703,-0.28166 0.336133,-0.678306 0.28125,-1.0625 -0.05345,-0.374148 -0.294792,-0.709091 -0.59375,-0.9375 l 0.03125,-0.03125 c -0.01156,-0.0086 -0.01979,0.0085 -0.03125,0 -1.337999,-0.996002 -2.046015,-1.507791 -2.375,-1.75 -0.0857,-0.06309 -0.148086,-0.09846 -0.21875,-0.15625 0.0025,0.0027 -0.01499,-0.01461 -0.03125,-0.03125 C 18.8044,17.6167 18.8061,17.6159 18.78125,17.59375 18.77645,17.58945 18.76177,17.57117 18.75,17.5625 18.73256,17.55027 18.71816,17.51645 18.6875,17.5 c -0.0067,-0.0052 -0.01741,-0.02219 -0.03125,-0.03125 -0.08147,-0.05671 -0.09988,-0.04746 -0.125,-0.0625 -0.0069,-0.0031 -0.03252,-4.68e-4 -0.03125,0 -0.02461,-0.01454 -0.06324,-0.04852 -0.125,-0.09375 -0.339944,-0.248964 -0.992547,-0.746493 -2.34375,-1.75 a 0.972394,0.972394 0 0 0 -0.03125,0 c -0.590909,-0.433847 -1.531621,-0.295436 -1.96875,0.28125 -2.526714,3.347742 -4.125,7.513833 -4.125,12.0625 0,11.06524 8.997248,20.0625 20.0625,20.0625 11.065216,-2e-6 20.09375,-8.994774 20.09375,-20.0625 10e-7,-7.142537 -3.864633,-13.257251 -9.5,-16.78125 0.347681,-0.554922 0.727877,-1.128687 1,-1.5625 0.228394,-0.3641029 0.45633,-0.6816331 0.625,-0.96875 0.112459,-0.1914333 0.178929,-0.3580949 0.1875,-0.375 C 42.36154,8.245293 42.40895,8.159869 42.46875,8 c -0.0045,0.012082 0.0017,-0.036351 0,-0.03125 C 42.48979,7.927443 42.50918,7.8241289 42.53125,7.75 42.55921,7.656104 42.59258,7.5743066 42.59375,7.46875 42.59625,7.240609 42.59035,7.0391893 42.4375,6.75 42.269611,6.4322445 41.937283,6.2284996 41.96875,6.25 41.94691,6.235079 41.98533,6.24873 41.71875,6.125 41.589373,6.064946 41.41753,6.0172899 41.46875,6.03125 41.370926,6.0045876 41.330475,6.0013958 41.25,6 41.09604,5.9759672 40.987137,5.9789945 40.875,5.96875 40.65472,5.9486258 40.268028,5.9010358 39.8125,5.875 38.961568,5.8263652 37.873797,5.793267 36.78125,5.75 35.670484,5.706011 34.550848,5.684259 33.71875,5.65625 33.302006,5.642222 32.96671,5.636814 32.71875,5.625 32.59477,5.61909 32.474539,5.59735 32.40625,5.59375 c -0.06829,-0.0036 -0.0097,0.00433 -0.125,0 -0.150934,-0.00567 -2.306825,-0.079598 -4.5,-0.15625 -1.094643,-0.038258 -2.15218,-0.078986 -3,-0.09375 -0.429762,-0.00748 -0.830629,-0.00437 -1.09375,0 -0.07291,0.00121 -0.131489,-0.017099 -0.34375,0 0.205152,-0.016522 0.03221,-0.054758 -0.25,0 z" transform="matrix(0.9538125,0,0,0.9538125,-4.6097646,-1.4369155)" id="C" fill="#8bb300"/>
  <path d="m 17.53125,4.28125 c -0.06314,0 -0.11566,0.0625 -0.15625,0.0625 -0.05412,1e-7 -0.07958,0.048649 -0.15625,0.09375 C 17.105999,4.5277019 17.054121,4.5660481 17,4.65625 c -0.05412,0.090202 -0.138209,0.1771973 -0.15625,0.3125 -0.009,0.090202 0,0.1875 0,0.1875 0.0045,0.045101 0.01772,0.1423991 0.03125,0.1875 1e-6,-2e-7 0.0174,-0.010303 0.0625,0.125 0.03608,0.090202 0.07539,0.1771972 0.125,0.3125 0.108243,0.2255047 0.261606,0.5280437 0.4375,0.84375 0.360806,0.7216147 0.82541,1.646631 1.3125,2.59375 0.48709,0.902019 0.991643,1.840885 1.375,2.5625 0.189424,0.360807 0.351487,0.663346 0.46875,0.84375 0.112751,0.225504 0.20554,0.375 0.1875,0.375 0.009,0.0451 0.04446,0.04865 0.0625,0.09375 0.02706,0.0451 0.07088,0.114696 0.125,0.25 0.108242,0.180403 0.252587,0.514192 0.4375,0.875 0.374337,0.676514 0.85215,1.615381 1.34375,2.5625 0.487092,0.902018 0.987132,1.854736 1.375,2.53125 0.189424,0.360808 0.342468,0.680746 0.46875,0.90625 0.07216,0.0902 0.173649,0.173649 0.21875,0.21875 0.0045,0.0451 0.03963,0.0799 0.09375,0.125 0.08118,0.0902 0.111469,0.09375 0.125,0.09375 0.01353,0 0.0045,0.0625 0,0.0625 0.03608,0.0451 0.04865,0.04865 0.09375,0.09375 0.04059,1e-6 0.203617,0.0625 0.375,0.0625 0.193936,0 0.347619,-0.0174 0.40625,-0.0625 0.117261,-0.0902 0.242583,-0.229052 0.09375,-0.09375 -0.009,1e-6 0.01676,-0.0035 0.125,-0.09375 0.117261,-0.135303 0.14304,-0.232601 0.125,-0.1875 0.05412,-0.0902 0.159478,-0.225847 0.28125,-0.40625 0.216485,-0.360807 0.496794,-0.753891 0.8125,-1.25 0.51866,-0.811817 1.096999,-1.816732 1.65625,-2.71875 3.238247,1.804035 5.46875,5.18737 5.46875,9.15625 -10e-7,5.818017 -4.735462,10.5 -10.5625,10.5 -5.827039,0 -10.5,-4.681982 -10.5,-10.5 0,-2.43545 0.825453,-4.602213 2.1875,-6.40625 0.121773,-0.135303 0.18782,-0.368245 0.15625,-0.59375 -0.02706,-0.225504 -0.141115,-0.409798 -0.3125,-0.5 -1.758935,-1.307925 -3.419545,-2.504574 -5.1875,-3.8125 C 9.9877735,13.680745 9.4935449,13.715544 9.25,14.03125 6.9092626,17.143213 5.4375,20.979264 5.4375,25.21875 5.4375002,35.411556 13.739863,43.75 23.96875,43.75 34.202147,43.75 42.5625,35.411557 42.5625,25.21875 42.562499,18.40851 38.80128,12.514665 33.3125,9.3125 33.749976,8.6359858 34.192993,7.8849608 34.53125,7.34375 34.756754,6.9829427 34.980677,6.7255046 35.125,6.5 c 0.08118,-0.1804036 0.12919,-0.2847982 0.15625,-0.375 0.009,1e-7 0.03093,-0.034798 0.0625,-0.125 -0.0045,-2e-7 0.01772,-0.048649 0.03125,-0.09375 -0.02255,0.045101 0.0087,0.058952 0.03125,-0.03125 0.01353,-0.045101 0,-0.097298 0,-0.1875 0,-0.090202 0.02319,-0.2084473 -0.0625,-0.34375 C 35.258059,5.1633462 35.076031,5.0625 35.0625,5.0625 35.026419,5.0173991 35.041232,5.013851 34.9375,4.96875 34.865338,4.9236491 34.78125,4.892399 34.78125,4.9375 c -0.05863,-0.045101 -0.08441,-0.045101 -0.125,0 -0.0451,-0.045101 -0.09407,0 -0.0625,0 C 34.508058,4.8923988 34.407212,4.875 34.3125,4.875 34.077977,4.8298991 33.749658,4.78125 33.34375,4.78125 32.540955,4.7361491 31.483842,4.7013508 30.4375,4.65625 29.386649,4.6111489 28.329536,4.6076009 27.53125,4.5625 c -0.401397,-2e-7 -0.729715,0 -0.96875,0 -0.117263,-0.045101 -0.213598,-0.03125 -0.28125,-0.03125 -0.06314,1e-7 -0.08441,0 -0.125,0 C 26.079579,4.5312501 23.967682,4.4201009 21.875,4.375 20.828659,4.3298989 19.798287,4.28125 19,4.28125 c -0.401398,-0.045101 -0.725205,0 -0.96875,0 -0.103732,0 -0.217468,-0.045101 -0.34375,0 0.0451,0 -0.02997,-0.045101 -0.15625,0 z" id="D" opacity="0.8" fill="none" stroke="url(#8)" stroke-width="0.954"/>
  <path d="m 17.710677,3.6594879 c -0.04961,0 -0.162363,0 -0.297665,0.045101 -0.139813,0 -0.198444,0.045101 -0.239036,0.090202 -0.117262,0.045101 -0.153343,0.045101 -0.297665,0.1353028 -0.248055,0.1353027 -0.333747,0.3157064 -0.387868,0.4059082 -0.04961,0.090202 -0.193935,0.1804037 -0.239035,0.586312 -0.01353,0.1353027 0.0045,0.3157063 0,0.2706054 0.01353,0.1353027 0.05412,0.3157064 0.0902,0.3608073 0.0045,0.045101 -0.03157,-0.045101 0.02706,0.1353028 0.04961,0.1353027 0.103732,0.2255045 0.148833,0.3157063 0.121773,0.2706055 0.275116,0.586312 0.451009,0.947119 0.360807,0.7216144 0.820837,1.5785323 1.307927,2.5256514 0.491599,0.9471189 1.01928,1.8942379 1.402638,2.5707529 0.193934,0.360807 0.333747,0.676513 0.446499,0.902017 0.117262,0.180404 0.234525,0.45101 0.180404,0.315706 0.0045,0.0451 0.02706,0 0.02706,0 0.009,0.0451 0.01804,0.0451 0.03157,0.0902 0.03157,0.0451 0.06314,0.135302 0.117263,0.270605 0.112751,0.225504 0.261584,0.49611 0.451008,0.856918 0.365318,0.676513 0.874959,1.668733 1.371068,2.570751 0.248055,0.496111 0.47356,0.902019 0.712594,1.307927 5.439171,-1.488331 11.180517,-2.615853 17.228549,-3.111963 -1.565001,-2.435449 -3.698274,-4.510092 -6.169804,-6.0435229 0.333747,-0.5412107 0.694554,-1.0824215 0.95614,-1.4883298 0.216484,-0.3608072 0.432967,-0.6765132 0.595332,-0.947119 0.108241,-0.1804036 0.171383,-0.3157064 0.175893,-0.3608073 -0.009,0.045101 0.03608,-0.045101 0.0902,-0.1804037 -0.0045,0 0.0045,-0.045101 0,-0.045101 0.0451,-0.090202 0.117262,-0.2706055 0.121773,-0.4510092 0,-0.2255045 -0.0045,-0.4059082 -0.148834,-0.7216145 -0.162363,-0.2706055 -0.47807,-0.4961101 -0.451009,-0.4510092 -0.01804,-0.045101 0.01804,0 -0.234525,-0.1353027 -0.126282,-0.045101 -0.288646,-0.090202 -0.239035,-0.090202 -0.09471,0 -0.135302,0 -0.211974,0 -0.144323,-0.045101 -0.248054,-0.045101 -0.356297,-0.045101 -0.207465,-0.045101 -0.577292,-0.090202 -1.014771,-0.090202 -0.811816,-0.045101 -1.849137,-0.090202 -2.890969,-0.1353028 -1.059871,-0.045101 -2.124252,-0.045101 -2.918029,-0.090202 -0.396888,0 -0.717104,0 -0.956139,0 -0.117262,-0.045101 -0.230014,-0.045101 -0.297666,-0.045101 -0.06314,0 -0.009,0 -0.117263,0 -0.144322,0 -2.200924,-0.090202 -4.293606,-0.1353028 -1.041831,-0.045101 -2.052092,-0.090202 -2.859398,-0.090202 -0.410419,-0.045101 -0.793776,0 -1.046341,0 -0.06765,0 -0.126283,-0.045101 -0.324727,0 0.03157,0 0.0451,-0.045101 0.05863,-0.045101 z M 9.6601645,13.175781 c -0.3472771,0.0902 -0.6855339,0.270605 -0.8929982,0.541211 -2.3993686,3.157063 -3.9192693,7.125945 -3.9327996,11.410531 3.2337355,-1.48833 6.6343443,-2.931559 10.2243773,-4.194385 0.302176,-0.631412 0.653963,-1.217724 1.073401,-1.758936 0.202955,-0.270605 0.320217,-0.631412 0.266095,-0.992219 -0.05412,-0.360808 -0.270605,-0.721616 -0.568271,-0.947119 -1.294396,-0.947121 -1.94836,-1.398129 -2.264066,-1.668735 -0.08118,-0.0451 -0.139813,-0.0902 -0.207464,-0.135302 0,0 -0.01353,0 -0.03157,-0.0451 -0.0045,0 -0.0045,0 -0.02706,0 -0.0045,0 -0.01804,-0.0451 -0.03157,-0.0451 -0.01804,0 -0.03157,-0.0451 -0.05863,-0.0451 -0.009,0 -0.01804,-0.0451 -0.03157,-0.0451 -0.07667,-0.0451 -0.09471,-0.0451 -0.117262,-0.0451 -0.009,0 -0.03157,0 -0.03157,0 -0.02255,-0.0451 -0.05863,-0.0451 -0.117262,-0.0902 -0.324726,-0.270606 -0.947119,-0.721616 -2.237005,-1.668735 -0.009,0 -0.01804,0 -0.03157,0 -0.279625,-0.225505 -0.635923,-0.315706 -0.9831995,-0.270605 z" id="E" opacity="0.8" fill="url(#9)"/>
 </g>
</svg>
